<?xml version="1.0" encoding="UTF-8"?>
<svg version="1.1" xmlns="http://www.w3.org/2000/svg" width="512" height="512">
<path d="M0 0 C2.39175314 2.18202423 4.74205618 4.40564368 7.08544922 6.6394043 C7.88466797 7.39737305 8.68388672 8.1553418 9.50732422 8.9362793 C15.19079859 14.46296816 20.17968145 20.41988855 25.08544922 26.6394043 C25.86662109 27.60362305 26.64779297 28.5678418 27.45263672 29.5612793 C67.71707309 80.24558579 84.54432165 145.50245039 77.48339844 209.45678711 C71.38569535 258.22344811 50.8083597 304.00397191 18.08544922 340.6394043 C17.31716797 341.51725586 16.54888672 342.39510742 15.75732422 343.29956055 C7.21985761 352.95645023 -1.77991319 361.67157691 -11.91455078 369.6394043 C-12.87748047 370.41928711 -13.84041016 371.19916992 -14.83251953 372.00268555 C-65.50965491 412.27462963 -130.78119933 429.09787899 -194.73193359 422.03735352 C-243.49859459 415.93965043 -289.27911839 395.36231478 -325.91455078 362.6394043 C-326.79240234 361.87112305 -327.67025391 361.1028418 -328.57470703 360.3112793 C-338.23159671 351.77381269 -346.94672339 342.77404189 -354.91455078 332.6394043 C-355.69443359 331.67647461 -356.47431641 330.71354492 -357.27783203 329.72143555 C-396.79111712 279.99897631 -414.12945191 215.61135728 -407.66845703 152.70581055 C-404.74578008 127.55270187 -397.90262362 103.83642827 -387.91455078 80.6394043 C-387.59760254 79.90093262 -387.2806543 79.16246094 -386.95410156 78.40161133 C-377.355305 56.34279062 -363.74704724 36.65302921 -347.91455078 18.6394043 C-346.75439453 17.31102539 -346.75439453 17.31102539 -345.57080078 15.95581055 C-337.02795565 6.31502934 -328.04316851 -2.39750112 -317.91455078 -10.3605957 C-316.95162109 -11.14047852 -315.98869141 -11.92036133 -314.99658203 -12.72387695 C-239.47102493 -72.74228545 -130.77796693 -80.99206181 0 0 Z M-208.36376953 81.10424805 C-212.43837881 85.87936322 -213.06331003 88.74278806 -213.0617218 94.82489014 C-213.06539849 95.57373923 -213.06907518 96.32258832 -213.07286328 97.0941298 C-213.08392294 99.61671512 -213.08774782 102.13925927 -213.09155273 104.66186523 C-213.09781568 106.4652113 -213.10446232 108.26855607 -213.11146545 110.07189941 C-213.12889119 114.98111369 -213.13943156 119.89031822 -213.14767098 124.79955578 C-213.15281793 127.86537789 -213.1588938 130.93119695 -213.16518211 133.99701691 C-213.18423879 143.58544216 -213.19846878 153.17385969 -213.20679408 162.76230025 C-213.21656851 173.83752967 -213.24289144 184.91255933 -213.28329498 195.98771834 C-213.3134373 204.54319739 -213.32826118 213.09861912 -213.3315751 221.65415025 C-213.33392778 226.76622511 -213.34291658 231.87808668 -213.36803627 236.99010468 C-213.39128896 241.80000042 -213.39556151 246.60954203 -213.38527489 251.41947937 C-213.38477873 253.1843356 -213.3911227 254.94920909 -213.40483093 256.71401215 C-213.42251034 259.12509459 -213.41546402 261.53490072 -213.40229797 263.94598389 C-213.41875184 264.99162368 -213.41875184 264.99162368 -213.43553811 266.05838752 C-213.37015834 271.02351569 -211.98643491 273.79723779 -208.91455078 277.6394043 C-205.21350002 280.97937694 -202.67946583 282.46970093 -197.66455078 282.9519043 C-190.46108516 282.3516155 -185.37485859 277.58715893 -180.16455078 272.9519043 C-178.93235001 271.87538437 -177.69926813 270.7998722 -176.46533203 269.7253418 C-175.86285645 269.19908203 -175.26038086 268.67282227 -174.63964844 268.13061523 C-172.24922094 266.0642791 -169.80589674 264.06728594 -167.35205078 262.0769043 C-163.33096987 258.81162127 -159.36109916 255.49382586 -155.41455078 252.1394043 C-150.56501027 248.01832638 -145.66294114 243.96948947 -140.72705078 239.9519043 C-137.59655412 237.37794037 -134.50282617 234.76371343 -131.41455078 232.1394043 C-126.56495697 228.01838796 -121.66294272 223.96949076 -116.72705078 219.9519043 C-113.03644035 216.91740239 -109.39661711 213.82513872 -105.75708008 210.72973633 C-102.28212055 207.77981525 -98.77002005 204.88276024 -95.22705078 202.0144043 C-91.58646023 199.03477016 -87.96945603 196.03350812 -84.41455078 192.9519043 C-83.62048828 192.26741211 -82.82642578 191.58291992 -82.00830078 190.87768555 C-79.09745243 187.76590177 -77.19478198 184.62836229 -76.59423828 180.3659668 C-77.67085344 168.78158767 -88.85276482 162.00039603 -97.18945312 155.06616211 C-100.49279317 152.33410448 -103.80946277 149.61901321 -107.13720703 146.91674805 C-110.25851445 144.35736376 -113.33905108 141.75346639 -116.41455078 139.1394043 C-120.38358621 135.76656841 -124.374721 132.42763784 -128.41455078 129.1394043 C-133.01908659 125.39152632 -137.5547427 121.56956985 -142.07861328 117.7253418 C-145.49514618 114.82695607 -148.93959916 111.96785329 -152.41455078 109.1394043 C-156.45438845 105.85116433 -160.44529563 102.51198927 -164.41455078 99.1394043 C-170.19103297 94.23535836 -176.01475843 89.3949945 -181.91455078 84.6394043 C-182.76533203 83.95362305 -183.61611328 83.2678418 -184.49267578 82.5612793 C-185.29189453 81.92706055 -186.09111328 81.2928418 -186.91455078 80.6394043 C-187.61580078 80.0825293 -188.31705078 79.5256543 -189.03955078 78.9519043 C-195.20548083 74.63575327 -203.17653341 75.86108485 -208.36376953 81.10424805 Z " fill="#000000" transform="translate(420.91455078125,76.360595703125)"/>
</svg>
